<?xml version="1.0" standalone="no"?>
<!DOCTYPE svg PUBLIC "-//W3C//DTD SVG 20010904//EN"
 "http://www.w3.org/TR/2001/REC-SVG-20010904/DTD/svg10.dtd">
<svg version="1.0" xmlns="http://www.w3.org/2000/svg"
 width="700.000000pt" height="700.000000pt" viewBox="0 0 700.000000 700.000000"
 preserveAspectRatio="xMidYMid meet">
<metadata>
Created by potrace 1.14, written by Peter Selinger 2001-2017
</metadata>
<g transform="translate(0.000000,700.000000) scale(0.100000,-0.100000)"
fill="#000000" stroke="none">
<path d="M3517 6994 c-1 -1 -36 -4 -77 -7 -90 -7 -116 -12 -193 -38 -187 -63
-337 -176 -440 -332 -29 -44 -197 -378 -197 -392 0 -2 -31 -69 -70 -150 -38
-81 -70 -148 -70 -150 0 -2 -27 -59 -59 -127 -32 -67 -73 -154 -91 -193 -18
-38 -59 -125 -91 -193 -33 -68 -59 -125 -59 -126 0 -2 -27 -62 -61 -132 -70
-148 -96 -203 -244 -519 -59 -126 -130 -277 -157 -335 -28 -58 -61 -127 -73
-155 -26 -57 -45 -98 -260 -555 -87 -184 -176 -373 -197 -420 -22 -47 -53
-112 -68 -145 -33 -72 -82 -176 -161 -344 -33 -67 -59 -125 -59 -126 0 -2 -36
-79 -80 -171 -44 -91 -80 -168 -80 -169 0 -1 -27 -61 -61 -131 -203 -428 -344
-736 -360 -787 -59 -184 -51 -393 22 -577 30 -75 82 -168 116 -206 136 -156
247 -235 403 -288 103 -34 155 -41 305 -40 102 0 146 5 207 22 164 46 267 109
423 257 53 50 356 339 483 460 52 50 109 104 127 120 17 17 79 75 136 130 58
55 181 172 274 260 92 88 187 178 210 200 22 22 110 105 194 185 85 80 165
156 180 170 14 14 49 47 77 72 l50 47 56 -52 c31 -29 99 -92 150 -142 52 -49
163 -155 247 -235 84 -80 181 -172 215 -205 35 -33 106 -100 157 -149 52 -49
170 -162 263 -250 93 -89 190 -181 216 -206 26 -25 123 -117 216 -206 346
-329 350 -332 470 -393 67 -33 128 -54 229 -78 55 -12 240 -15 297 -3 35 6 72
14 82 16 163 31 360 163 475 317 201 270 227 591 75 913 -25 55 -54 117 -64
139 -10 22 -56 121 -102 220 -47 99 -102 216 -123 260 -60 128 -334 712 -375
800 -20 44 -54 115 -74 158 -20 42 -52 112 -72 155 -61 129 -115 243 -151 322
-20 41 -52 111 -73 155 -21 44 -52 112 -70 150 -18 39 -53 113 -77 165 -25 52
-61 129 -80 170 -19 41 -69 147 -110 235 -89 188 -142 302 -190 405 -43 92
-103 218 -153 325 -21 44 -51 109 -68 145 -16 36 -54 117 -84 180 -30 63 -68
142 -83 175 -47 102 -113 243 -222 475 -28 58 -58 124 -68 145 -85 187 -190
390 -228 440 -143 190 -353 307 -601 333 -42 5 -77 7 -79 6z m133 -610 c28
-15 63 -42 77 -59 22 -25 114 -207 191 -375 43 -95 125 -270 241 -514 33 -70
61 -130 61 -131 0 -2 23 -52 51 -111 28 -60 66 -140 84 -179 18 -38 56 -119
85 -180 29 -60 65 -137 80 -170 15 -33 55 -118 89 -188 33 -71 61 -130 61
-132 0 -1 29 -63 64 -136 35 -74 74 -156 86 -184 12 -27 45 -97 72 -155 47
-98 141 -298 228 -485 20 -44 53 -114 73 -155 101 -214 168 -357 227 -485 15
-33 53 -113 84 -179 31 -65 56 -119 56 -121 0 -1 31 -67 69 -146 37 -79 80
-169 94 -199 13 -30 45 -98 70 -150 40 -86 135 -289 222 -475 18 -38 58 -124
89 -189 76 -161 90 -205 83 -270 -15 -144 -125 -253 -265 -262 -100 -6 -178
27 -273 116 -8 8 -69 67 -135 130 -66 63 -165 158 -220 210 -55 52 -172 163
-260 246 -87 84 -186 177 -219 209 -33 31 -96 91 -140 133 -45 42 -164 156
-265 252 -101 96 -226 216 -278 265 -52 50 -118 112 -147 140 l-54 50 134 130
c84 82 150 157 180 203 149 233 181 504 89 761 -114 322 -362 535 -682 585
-409 64 -784 -154 -941 -546 -47 -117 -64 -200 -64 -323 0 -123 12 -198 50
-300 57 -151 121 -240 283 -395 l121 -114 -68 -64 c-82 -78 -192 -182 -423
-402 -293 -279 -382 -363 -425 -405 -23 -22 -107 -101 -186 -176 -79 -75 -169
-161 -200 -190 -117 -112 -376 -359 -429 -408 -85 -80 -139 -104 -235 -105
-92 -1 -148 21 -208 79 -57 56 -82 118 -81 205 0 80 -5 64 106 300 28 58 76
161 108 230 32 69 78 168 103 220 24 52 60 129 80 170 95 204 122 261 157 335
37 77 77 164 145 310 18 39 52 111 75 160 23 50 57 122 75 160 18 39 53 113
77 165 25 52 57 120 71 150 13 30 46 100 72 155 26 55 68 143 92 195 25 52 58
122 73 155 15 33 47 101 70 150 117 249 199 425 222 475 11 25 51 110 89 189
38 79 69 145 69 146 0 2 34 73 75 160 41 86 75 158 75 160 0 1 24 54 54 116
29 63 69 148 89 189 241 515 356 762 395 845 25 55 59 117 74 137 80 104 240
136 358 72z m5 -2799 c60 -35 92 -71 127 -144 25 -54 31 -77 30 -131 -1 -107
-24 -147 -169 -287 l-127 -123 -70 68 c-39 37 -93 87 -119 112 -61 57 -87 99
-102 165 -39 167 84 351 250 375 55 8 132 -7 180 -35z"/>
</g>
</svg>
