<svg width="302" height="76" viewBox="0 0 302 76" fill="none" xmlns="http://www.w3.org/2000/svg"><defs><mask id="msk1"><g transform="translate(0 76)"><animateTransform attributeName="transform" values="0 76; 0 0" keySplines="0.33, 0, 0.67, 1" type="translate" fill="freeze" repeatCount="1" dur="0.5s"/><path fill="#fff" id="mask" d="M0 0h302v76H0z"/></g></mask></defs><path mask="url(#msk1)" d="M18.386 75l4.603-14.66H47.09L51.693 75H69.83L46.273 5.182H23.807L.25 75h18.136zm8.625-27.477l7.739-24.75h.545l7.773 24.75H27.011zM98.51 75.989c14.727 0 23.863-8.557 24.306-21.512h-15.579c-.614 5.557-3.955 8.591-8.523 8.591-5.864 0-9.682-4.943-9.682-14.25 0-9.238 3.852-14.182 9.682-14.182 4.773 0 7.875 3.239 8.523 8.591h15.579c-.375-12.886-9.784-21.272-24.34-21.272-16.466 0-26.421 10.977-26.421 27.034 0 15.988 9.886 27 26.454 27zm62.394-53.353h-9.443V10.091h-16.67v12.545h-6.921V34.91h6.921v25.466c-.102 10.602 6.784 15.92 18.545 15.375 4.023-.204 6.921-1.023 8.523-1.5l-2.523-12.034c-.716.17-2.386.511-3.647.511-2.694 0-4.228-1.09-4.228-4.193V34.91h9.443V22.636zM169.409 75h16.671V22.636h-16.671V75zm8.352-58.466c4.739 0 8.557-3.58 8.557-7.977 0-4.398-3.818-7.943-8.557-7.943-4.704 0-8.556 3.545-8.556 7.943 0 4.397 3.852 7.977 8.556 7.977zm69.725 6.102h-17.557l-9.682 36.069h-.545l-9.648-36.069h-17.557L210.429 75h19.091l17.966-52.364zm29.182 53.353c13.738 0 22.772-6.648 24.681-16.944l-15.306-.443c-1.296 3.478-4.705 5.353-9.069 5.353-6.409 0-10.363-4.262-10.363-10.67v-.444h34.909v-4.16c0-17.25-10.5-26.726-25.364-26.726-15.818 0-25.977 10.84-25.977 27.068 0 16.773 10.023 26.966 26.489 26.966zm-10.057-32.83c.238-5.216 4.363-9.17 9.886-9.17 5.489 0 9.443 3.818 9.512 9.17h-19.398z" fill="#2C2C2C"/></svg>