<svg width="141" height="48" viewBox="0 0 141 48" fill="none" xmlns="http://www.w3.org/2000/svg"><path d="M5.752 0h129.496c3.159 0 5.726 2.58 5.726 5.753v36.438c0 3.173-2.567 5.753-5.726 5.753H5.752c-3.16 0-5.726-2.58-5.726-5.753V5.753C.026 2.58 2.593 0 5.752 0z" fill="#000"/><path d="M30.878 22.879c-.029-3.433 2.796-5.102 2.92-5.178-1.603-2.34-4.084-2.666-4.953-2.695-2.08-.22-4.103 1.256-5.162 1.256-1.079 0-2.72-1.227-4.476-1.198-2.262.038-4.39 1.352-5.544 3.404-2.396 4.171-.611 10.308 1.689 13.683 1.154 1.65 2.49 3.5 4.256 3.433 1.718-.067 2.366-1.103 4.437-1.103 2.062 0 2.663 1.103 4.457 1.064 1.851-.028 3.006-1.658 4.122-3.327 1.327-1.889 1.861-3.759 1.88-3.855-.047-.019-3.588-1.38-3.626-5.484zM27.49 12.791c.926-1.16 1.556-2.742 1.384-4.353-1.336.058-3.016.93-3.98 2.071-.849 1.007-1.612 2.647-1.421 4.19 1.508.116 3.053-.767 4.017-1.908zm28.314 22.553h-2.405l-1.317-4.161h-4.58l-1.25 4.161h-2.338l4.532-14.162h2.806l4.552 14.162zm-4.113-5.906l-1.193-3.692c-.124-.384-.362-1.266-.706-2.666h-.048a119.39 119.39 0 01-.668 2.666l-1.173 3.692h3.788zm15.765.681c0 1.735-.468 3.106-1.413 4.113-.84.901-1.889 1.343-3.13 1.343-1.345 0-2.309-.48-2.9-1.448v5.36H57.75V28.488c0-1.093-.029-2.205-.086-3.356h1.985l.124 1.62h.038c.754-1.217 1.899-1.83 3.426-1.83 1.202 0 2.195.479 2.996 1.428.821.959 1.222 2.205 1.222 3.768zm-2.3.076c0-.997-.22-1.812-.668-2.454-.487-.672-1.145-1.007-1.966-1.007-.553 0-1.06.191-1.517.556a2.57 2.57 0 00-.888 1.457 3.12 3.12 0 00-.105.69v1.707c0 .739.23 1.372.678 1.88.448.508 1.04.767 1.765.767.85 0 1.508-.336 1.985-.988.477-.661.716-1.524.716-2.608zm13.98-.076c0 1.735-.467 3.106-1.412 4.113-.84.901-1.89 1.343-3.13 1.343-1.345 0-2.31-.48-2.901-1.448v5.36h-2.262V28.488a67.67 67.67 0 00-.085-3.356h1.984l.124 1.62h.039c.754-1.217 1.899-1.83 3.425-1.83 1.203 0 2.195.479 2.997 1.428.82.959 1.221 2.205 1.221 3.768zm-2.3.076c0-.997-.219-1.812-.667-2.454-.487-.672-1.145-1.007-1.966-1.007-.554 0-1.06.191-1.517.556a2.622 2.622 0 00-.888 1.457 3.12 3.12 0 00-.105.69v1.707c0 .739.229 1.372.678 1.88.448.508 1.04.767 1.765.767.85 0 1.517-.336 1.985-.988.487-.661.716-1.524.716-2.608zm15.374 1.18c0 1.208-.42 2.186-1.25 2.944-.916.824-2.195 1.236-3.836 1.236-1.518 0-2.73-.297-3.646-.882l.525-1.889c.993.585 2.08.882 3.264.882.85 0 1.517-.191 1.985-.575.477-.383.715-.901.715-1.544 0-.575-.2-1.055-.582-1.448-.39-.393-1.04-.757-1.946-1.093-2.491-.93-3.722-2.282-3.722-4.056 0-1.16.439-2.11 1.307-2.857.869-.739 2.023-1.113 3.464-1.113 1.279 0 2.348.221 3.197.672l-.572 1.84c-.802-.43-1.7-.651-2.71-.651-.793 0-1.422.201-1.871.585-.372.354-.563.776-.563 1.285 0 .556.22 1.026.649 1.38.372.336 1.06.7 2.052 1.093 1.212.49 2.099 1.065 2.672 1.726.582.662.868 1.487.868 2.465zm7.482-4.535h-2.49v4.957c0 1.256.438 1.888 1.316 1.888.4 0 .735-.038 1.002-.105l.067 1.726c-.449.163-1.03.25-1.756.25-.897 0-1.584-.279-2.09-.825-.506-.547-.754-1.467-.754-2.752v-5.15h-1.479v-1.697h1.48v-1.87l2.213-.67v2.54h2.49v1.707zm11.203 3.317c0 1.573-.448 2.857-1.336 3.864-.935 1.036-2.176 1.554-3.722 1.554-1.488 0-2.681-.499-3.569-1.487-.887-.987-1.326-2.243-1.326-3.758 0-1.582.458-2.877 1.365-3.884.916-1.007 2.147-1.515 3.693-1.515 1.488 0 2.691.499 3.597 1.496.869.959 1.298 2.205 1.298 3.73zm-2.338.048c0-.94-.2-1.736-.601-2.407-.477-.815-1.155-1.218-2.033-1.218-.906 0-1.603.403-2.071 1.218-.41.671-.601 1.487-.601 2.455 0 .94.201 1.745.601 2.407.487.815 1.174 1.218 2.052 1.218.859 0 1.537-.413 2.033-1.237.41-.69.62-1.496.62-2.436zm9.686-3.078a4.166 4.166 0 00-.716-.058c-.792 0-1.412.297-1.841.902-.372.527-.563 1.208-.563 2.013v5.36h-2.262v-7c0-1.179-.019-2.253-.067-3.212h1.966l.086 1.956h.067c.238-.67.61-1.217 1.126-1.62.506-.364 1.049-.547 1.632-.547.21 0 .4.02.563.039l.009 2.167zm10.096 2.627c0 .403-.028.748-.086 1.026h-6.775c.029 1.007.353 1.784.983 2.311.573.47 1.307.71 2.214.71 1.002 0 1.918-.163 2.739-.48l.353 1.573c-.964.422-2.1.633-3.407.633-1.575 0-2.815-.47-3.712-1.4-.897-.93-1.346-2.187-1.346-3.75 0-1.534.42-2.819 1.26-3.845.878-1.093 2.061-1.64 3.55-1.64 1.46 0 2.576.547 3.321 1.64.601.882.906 1.947.906 3.222zm-2.156-.585c.019-.671-.134-1.256-.439-1.745-.392-.633-.993-.95-1.794-.95-.735 0-1.336.308-1.794.921-.373.49-.602 1.084-.668 1.765l4.695.01zm-75.58-13.05H49.42l-.649-2.043h-2.252l-.62 2.043h-1.146l2.224-6.962h1.374l2.252 6.962zm-2.032-2.906l-.583-1.822c-.057-.182-.171-.623-.353-1.313h-.019c-.076.297-.172.729-.334 1.313l-.572 1.822h1.86zm7.605-2.119l-1.89 5.025h-1.078l-1.832-5.025h1.193l.85 2.656c.143.441.267.863.362 1.266h.029c.085-.364.21-.786.362-1.266l.84-2.656h1.164zm4.027 5.025l-.086-.576h-.028c-.344.46-.83.69-1.46.69-.897 0-1.527-.632-1.527-1.476 0-1.237 1.069-1.88 2.92-1.88v-.095c0-.662-.353-.988-1.04-.988-.496 0-.926.125-1.308.374l-.229-.729c.458-.287 1.04-.431 1.718-.431 1.307 0 1.966.69 1.966 2.08v1.851c0 .508.019.902.076 1.199l-1.002-.02zm-.152-2.503c-1.232 0-1.852.297-1.852 1.016 0 .528.315.787.764.787.563 0 1.088-.432 1.088-1.026v-.777zM63.6 10.27a.652.652 0 01-.658-.671c0-.384.296-.662.678-.662.381 0 .687.278.677.662 0 .402-.286.67-.696.67zm-.534.825h1.107v5.014h-1.107v-5.015zm3.082-2.302h1.107v7.316h-1.107V8.793zm5.822 7.326l-.086-.575h-.029c-.344.46-.83.69-1.46.69-.897 0-1.527-.633-1.527-1.477 0-1.237 1.069-1.88 2.92-1.88v-.095c0-.662-.353-.988-1.04-.988-.496 0-.925.125-1.307.374l-.23-.738c.459-.288 1.04-.431 1.718-.431 1.308 0 1.966.69 1.966 2.08v1.85c0 .51.02.902.067 1.2h-.992v-.01zm-.153-2.503c-1.231 0-1.851.298-1.851 1.017 0 .527.315.786.763.786.563 0 1.088-.431 1.088-1.026v-.777zm5.583 2.618c-.707 0-1.231-.297-1.575-.892h-.019l-.067.777h-.945c.03-.403.039-.854.039-1.352V8.793h1.116v3.04h.02c.333-.556.858-.835 1.593-.835 1.202 0 2.042 1.036 2.042 2.541 0 1.554-.935 2.695-2.204 2.695zm-.23-4.363c-.639 0-1.22.556-1.22 1.333v.882c0 .69.524 1.256 1.201 1.256.83 0 1.327-.68 1.327-1.764 0-1.017-.515-1.707-1.307-1.707zm4.075-3.078h1.107v7.316h-1.107V8.793zm7.148 5.082h-3.33c.019.95.648 1.486 1.574 1.486a3.73 3.73 0 001.346-.24l.171.777c-.467.211-1.02.307-1.67.307-1.565 0-2.49-.988-2.49-2.532 0-1.534.944-2.694 2.366-2.694 1.27 0 2.08.95 2.08 2.388 0 .201-.009.374-.047.508zm-1.012-.796c0-.777-.39-1.323-1.097-1.323-.64 0-1.136.556-1.212 1.323h2.31zm7.739 3.155c-1.46 0-2.404-1.093-2.404-2.58 0-1.553.964-2.655 2.49-2.655 1.441 0 2.405 1.045 2.405 2.57 0 1.562-.992 2.665-2.49 2.665zm.048-4.42c-.801 0-1.317.757-1.317 1.802 0 1.036.525 1.784 1.308 1.784.782 0 1.307-.806 1.307-1.813-.01-1.016-.515-1.773-1.298-1.773zm8.408 4.305h-1.107v-2.886c0-.892-.344-1.333-1.012-1.333-.658 0-1.107.565-1.107 1.227v2.982h-1.107v-3.576c0-.441-.01-.921-.038-1.439h.973l.048.777h.029c.296-.537.906-.882 1.584-.882 1.05 0 1.737.805 1.737 2.119v3.01zm7.262-4.181h-1.222v2.436c0 .623.22.93.649.93.191 0 .363-.02.497-.048l.028.843c-.219.087-.506.125-.859.125-.878 0-1.393-.489-1.393-1.755v-2.531h-.725v-.834h.725v-.92l1.088-.336v1.246h1.221v.844m5.869 4.181h-1.107v-2.867c0-.902-.343-1.352-1.011-1.352-.573 0-1.107.393-1.107 1.189v3.02h-1.107V8.793h1.107v3.01h.019c.353-.546.849-.814 1.498-.814 1.059 0 1.708.824 1.708 2.138v2.992zm5.669-2.244h-3.331c.019.95.649 1.486 1.575 1.486.496 0 .944-.086 1.345-.24l.172.777c-.468.211-1.021.307-1.67.307-1.565 0-2.491-.988-2.491-2.532 0-1.534.945-2.694 2.367-2.694 1.269 0 2.08.95 2.08 2.388 0 .201-.009.374-.047.508zm-1.012-.796c0-.777-.391-1.323-1.097-1.323-.64 0-1.145.556-1.212 1.323h2.309z" fill="#fff"/></svg>