<svg width="15" height="18" viewBox="0 0 15 18" fill="none" xmlns="http://www.w3.org/2000/svg">
<path d="M11.9214 9.38011C11.9028 7.15032 13.7376 6.06656 13.8182 6.01674C12.7768 4.49699 11.1652 4.28522 10.6011 4.26654C9.24981 4.12328 7.9357 5.08247 7.24764 5.08247C6.5472 5.08247 5.48103 4.28522 4.34048 4.30391C2.8714 4.32882 1.4891 5.18212 0.739059 6.51501C-0.816803 9.2244 0.342345 13.2106 1.83622 15.403C2.58626 16.4743 3.45407 17.6764 4.60082 17.6328C5.71658 17.5892 6.13809 16.9165 7.48319 16.9165C8.8221 16.9165 9.21262 17.6328 10.378 17.6079C11.5805 17.5892 12.3305 16.5304 13.0558 15.4466C13.9174 14.2196 14.2645 13.0051 14.2769 12.9428C14.2459 12.9303 11.9462 12.0459 11.9214 9.38011Z" fill="#303030"/>
<path d="M9.72088 2.82772C10.3221 2.07408 10.7313 1.04638 10.6197 0C9.75187 0.0373708 8.66091 0.604161 8.03484 1.34535C7.48316 1.99934 6.98727 3.0644 7.11124 4.06719C8.09063 4.14193 9.09481 3.56891 9.72088 2.82772Z" fill="#303030"/>
</svg>
