<svg width="1046" height="1143" viewBox="0 0 1046 1143" fill="none" xmlns="http://www.w3.org/2000/svg"><g filter="url(#filter0_f)"><path fill-rule="evenodd" clip-rule="evenodd" d="M478.932 784.949c-44.799-54.337-115.382-104.81-176.737-139.38-15.573-8.774-30.129-19.969-43.11-33.571-70.626-74.007-67.886-191.256 6.121-261.883 74.008-70.627 191.257-67.887 261.884 6.121 33.498 35.101 84.325 61.383 132.8 63.501 55.911 2.443 111.098 25.732 152.901 69.537 85.563 89.659 82.656 231.31-6.493 316.388-89.149 85.077-230.782 81.363-316.346-8.296a228.656 228.656 0 01-11.02-12.417z" fill="url(#paint0_linear)" fill-opacity=".1"/></g><defs><linearGradient id="paint0_linear" x1="304.766" y1="382.415" x2="865.629" y2="358.307" gradientUnits="userSpaceOnUse"><stop stop-color="#FF00B5"/><stop offset=".413" stop-color="#2C15EA" stop-opacity=".65"/><stop offset="1" stop-color="#FF00E4" stop-opacity=".71"/></linearGradient><filter id="filter0_f" x="0" y="0" width="1096.91" height="1142.32" filterUnits="userSpaceOnUse" color-interpolation-filters="sRGB"><feFlood flood-opacity="0" result="BackgroundImageFix"/><feBlend in="SourceGraphic" in2="BackgroundImageFix" result="shape"/><feGaussianBlur stdDeviation="70" result="effect1_foregroundBlur"/></filter></defs></svg>