<svg width="1046" height="1143" viewBox="0 0 1046 1143" fill="none" xmlns="http://www.w3.org/2000/svg">
<g filter="url(#filter0_f)">
<path fill-rule="evenodd" clip-rule="evenodd" d="M478.932 784.949C434.133 730.612 363.55 680.139 302.195 645.569C286.622 636.795 272.066 625.6 259.085 611.998C188.459 537.991 191.199 420.742 265.206 350.115C339.214 279.488 456.463 282.228 527.09 356.236C560.588 391.337 611.415 417.619 659.89 419.737C715.801 422.18 770.988 445.469 812.791 489.274C898.354 578.933 895.447 720.584 806.298 805.662C717.149 890.739 575.516 887.025 489.952 797.366C486.099 793.329 482.426 789.187 478.932 784.949Z" fill="url(#paint0_linear)" fill-opacity="0.1"/>
</g>
<defs>
<filter id="filter0_f" x="0" y="0.000244141" width="1096.91" height="1142.32" filterUnits="userSpaceOnUse" color-interpolation-filters="sRGB">
<feFlood flood-opacity="0" result="BackgroundImageFix"/>
<feBlend mode="normal" in="SourceGraphic" in2="BackgroundImageFix" result="shape"/>
<feGaussianBlur stdDeviation="70" result="effect1_foregroundBlur"/>
</filter>
<linearGradient id="paint0_linear" x1="304.766" y1="382.415" x2="865.629" y2="358.307" gradientUnits="userSpaceOnUse">
<stop stop-color="#FF00B5"/>
<stop offset="0.412668" stop-color="#2C15EA" stop-opacity="0.65"/>
<stop offset="1" stop-color="#FF00E4" stop-opacity="0.71"/>
</linearGradient>
</defs>
</svg>
