<svg width="1440" height="308" viewBox="0 0 1440 308" fill="none" xmlns="http://www.w3.org/2000/svg"><mask id="mask0" maskUnits="userSpaceOnUse" x="0" y="0" width="1440" height="308"><path fill="#F5F2EE" d="M0 0h1440v308H0z"/></mask><g mask="url(#mask0)"><g opacity=".6" filter="url(#filter0_f)"><ellipse cx="1110.5" cy="-.177" rx="130.5" ry="46.521" fill="#0073FF" fill-opacity=".4"/></g><g opacity=".6" filter="url(#filter1_f)"><ellipse cx="1318.5" cy="29.766" rx="148.5" ry="46.521" fill="#0073FF" fill-opacity=".4"/></g><g opacity=".6" filter="url(#filter2_f)"><ellipse cx="1420.5" cy="95.003" rx="165.5" ry="58.998" fill="#D915EA" fill-opacity=".4"/></g><g filter="url(#filter3_f)"><path fill-rule="evenodd" clip-rule="evenodd" d="M-219.253 216.559c9.81 14.387 32.148 26.517 61.878 35.275 21.277 6.268 32.879 44.776 45.374 63.102 29.27 42.931 150.071 69.322 269.816 58.947 24.707-2.141 47.439-5.68 67.701-10.326 51.815-11.88 114.399-14.054 167.224-8.106 24.05 2.708 50.415 3.182 76.711.904 76.732-6.649 123.817-34.213 105.167-61.566-18.65-27.354-95.972-44.139-172.704-37.49a352.788 352.788 0 00-21.842 2.563c-35.238 5.284-76.587-4.095-109.714-17.221-26.055-10.324-59.219-18.055-95.954-22.422-14.765-1.755-25.301-22.566-33.677-34.851C116.566 149.932 16.395 128.187-83.01 136.8c-99.406 8.613-160.404 44.322-136.243 79.759z" fill="url(#paint0_linear)" fill-opacity=".2"/></g></g><defs><filter id="filter0_f" x="840" y="-186.698" width="541" height="373.042" filterUnits="userSpaceOnUse" color-interpolation-filters="sRGB"><feFlood flood-opacity="0" result="BackgroundImageFix"/><feBlend in="SourceGraphic" in2="BackgroundImageFix" result="shape"/><feGaussianBlur stdDeviation="70" result="effect1_foregroundBlur"/></filter><filter id="filter1_f" x="1030" y="-156.755" width="577" height="373.042" filterUnits="userSpaceOnUse" color-interpolation-filters="sRGB"><feFlood flood-opacity="0" result="BackgroundImageFix"/><feBlend in="SourceGraphic" in2="BackgroundImageFix" result="shape"/><feGaussianBlur stdDeviation="70" result="effect1_foregroundBlur"/></filter><filter id="filter2_f" x="1115" y="-103.995" width="611" height="397.995" filterUnits="userSpaceOnUse" color-interpolation-filters="sRGB"><feFlood flood-opacity="0" result="BackgroundImageFix"/><feBlend in="SourceGraphic" in2="BackgroundImageFix" result="shape"/><feGaussianBlur stdDeviation="70" result="effect1_foregroundBlur"/></filter><filter id="filter3_f" x="-364.536" y="-5.083" width="1083.23" height="521.222" filterUnits="userSpaceOnUse" color-interpolation-filters="sRGB"><feFlood flood-opacity="0" result="BackgroundImageFix"/><feBlend in="SourceGraphic" in2="BackgroundImageFix" result="shape"/><feGaussianBlur stdDeviation="70" result="effect1_foregroundBlur"/></filter><linearGradient id="paint0_linear" x1="7.5" y1="153.823" x2="174.205" y2="508.253" gradientUnits="userSpaceOnUse"><stop stop-color="#FF00B5"/><stop offset=".413" stop-color="#2C15EA" stop-opacity=".65"/><stop offset="1" stop-color="#FF00E4" stop-opacity=".71"/></linearGradient></defs></svg>