<svg width="351" height="76" viewBox="0 0 351 76" fill="none" xmlns="http://www.w3.org/2000/svg">
<defs>
  <mask id="msk1">
    <g transform="translate(0, 76)">
       <animateTransform
          attributeName="transform"
          values="0 76; 0 0"            
          keySplines="0.33, 0, 0.67, 1"
          type="translate"
          fill="freeze"
          repeatCount="1"
          dur="0.5s"/>
      <rect width="351" fill="white" height="76" id="mask"/>
    </g>
  </mask>
</defs>
<path mask="url(#msk1)" d="M0.284091 75H17.1591V46.9432H44.9091V33.2045H17.1591V18.8864H47.9432V5.18182H0.284091V75ZM55.4091 75H72.0795V46.5682C72.0795 40.3295 76.5114 36.1364 82.4773 36.1364C84.4545 36.1364 87.4205 36.4773 89.0227 37.0227V22.5341C87.625 22.1591 85.8864 21.9205 84.3523 21.9205C78.625 21.9205 74.0568 25.2614 72.1477 32.1818H71.6023V22.6364H55.4091V75ZM95.8153 75H112.486V22.6364H95.8153V75ZM104.168 16.5341C108.906 16.5341 112.724 12.9545 112.724 8.55682C112.724 4.15909 108.906 0.613632 104.168 0.613632C99.4631 0.613632 95.6108 4.15909 95.6108 8.55682C95.6108 12.9545 99.4631 16.5341 104.168 16.5341ZM147.574 75.9886C161.312 75.9886 170.347 69.3409 172.256 59.0455L156.949 58.6023C155.653 62.0795 152.244 63.9545 147.881 63.9545C141.472 63.9545 137.517 59.6932 137.517 53.2841V52.8409H172.426V48.6818C172.426 31.4318 161.926 21.9545 147.062 21.9545C131.244 21.9545 121.085 32.7955 121.085 49.0227C121.085 65.7955 131.108 75.9886 147.574 75.9886ZM137.517 43.1591C137.756 37.9432 141.881 33.9886 147.403 33.9886C152.892 33.9886 156.847 37.8068 156.915 43.1591H137.517ZM197.611 45.1364C197.645 39.1705 201.122 35.625 206.406 35.625C211.69 35.625 214.827 39.1023 214.793 44.8977V75H231.463V41.625C231.497 29.8295 224.304 21.9545 213.293 21.9545C205.554 21.9545 199.69 25.875 197.372 32.25H196.793V22.6364H180.94V75H197.611V45.1364ZM260.909 75.75C268.818 75.75 273.523 71.3523 275.636 66.5114H276.148V75H292.648V5.18182H275.977V31.6023H275.636C273.659 26.7955 269.091 21.9545 260.841 21.9545C249.898 21.9545 239.977 30.375 239.977 48.8523C239.977 66.6818 249.352 75.75 260.909 75.75ZM266.705 62.7614C260.534 62.7614 257.091 57.2727 257.091 48.8182C257.091 40.3977 260.5 34.9773 266.705 34.9773C272.807 34.9773 276.352 40.2614 276.352 48.8182C276.352 57.3068 272.773 62.7614 266.705 62.7614ZM348.906 38.625C348.02 28.2614 339.531 21.9545 325.349 21.9545C311.168 21.9545 302.134 28.125 302.202 38.625C302.134 46.6705 307.281 51.8523 317.747 53.7955L326.884 55.5341C331.213 56.3864 333.19 57.75 333.259 60.0682C333.19 62.6932 330.259 64.4318 325.997 64.4318C321.259 64.4318 318.054 62.3864 317.338 58.5682L300.872 58.9773C302.065 69.3409 310.963 75.9886 325.929 75.9886C339.94 75.9886 350.134 69 350.202 58.2273C350.134 50.5909 345.088 46.0568 334.656 44.0455L324.565 42.1364C320.134 41.25 318.702 39.6818 318.736 37.6705C318.702 35.0114 321.804 33.375 325.656 33.375C330.054 33.375 333.122 35.7273 333.599 39.0341L348.906 38.625Z" fill="#2C2C2C"/>
</svg>
