<svg width="162" height="48" viewBox="0 0 162 48" fill="none" xmlns="http://www.w3.org/2000/svg"><path fill-rule="evenodd" clip-rule="evenodd" d="M155.998 47.921H6.002c-3.308 0-6.002-2.7-6.002-5.99V5.991C0 2.688 2.694 0 6.002 0h149.996C159.303 0 162 2.689 162 5.99v35.941c0 3.29-2.697 5.99-6.002 5.99z" fill="#000"/><path fill-rule="evenodd" clip-rule="evenodd" d="M155.998.959c2.774 0 5.045 2.262 5.045 5.031v35.941c0 2.77-2.256 5.031-5.045 5.031H6.002c-2.774 0-5.045-2.262-5.045-5.031V5.991A5.043 5.043 0 016.002.958h149.996zm0-.959H6.002C2.694 0 0 2.7 0 5.99v35.941c0 3.301 2.694 5.99 6.002 5.99h149.996c3.305 0 6.002-2.689 6.002-5.99V5.991C162 2.7 159.303 0 155.998 0z" fill="#A6A6A6"/><path d="M85.342 15.852c-1.082 0-1.993-.38-2.715-1.126a3.841 3.841 0 01-1.096-2.749c0-1.09.37-2.013 1.096-2.745.719-.747 1.63-1.127 2.712-1.127 1.07 0 1.982.38 2.715 1.127.727.756 1.097 1.679 1.097 2.745-.012 1.094-.381 2.017-1.097 2.746-.718.753-1.63 1.13-2.712 1.13zm-32.19 0a3.766 3.766 0 01-2.726-1.111c-.745-.735-1.124-1.664-1.124-2.76 0-1.097.379-2.026 1.124-2.761.736-.738 1.654-1.112 2.727-1.112.524 0 1.034.105 1.523.317.48.206.87.487 1.159.83l.072.087-.808.795-.084-.099c-.456-.543-1.067-.81-1.874-.81a2.59 2.59 0 00-1.869.766c-.521.51-.787 1.18-.787 1.99 0 .809.266 1.478.787 1.99a2.587 2.587 0 001.869.764c.769 0 1.415-.257 1.92-.765.297-.299.482-.717.547-1.246h-2.59V11.61h3.702l.015.101c.027.189.054.383.054.562 0 1.03-.31 1.864-.924 2.48-.698.729-1.61 1.1-2.712 1.1zm42.8-.158h-1.141l-3.496-5.608.03 1.01v4.595h-1.142V8.267h1.302l.036.057 3.287 5.282-.03-1.007V8.267h1.154v7.427zm-19.187 0H75.61v-6.31h-2.006V8.267h5.165v1.117h-2.006v6.31h.003zm-4.104 0h-1.153V8.267h1.153v7.427zm-6.482 0h-1.153v-6.31H63.02V8.267h5.165v1.117H66.18v6.31zm-3.889-.012h-4.422V8.267h4.422v1.117h-3.266v2.038h2.947v1.105h-2.947v2.038h3.266v1.117zm21.184-1.724a2.55 2.55 0 001.868.777c.748 0 1.36-.254 1.869-.777.507-.508.763-1.174.763-1.978 0-.803-.256-1.473-.76-1.977a2.554 2.554 0 00-1.869-.777c-.748 0-1.359.254-1.865.777-.507.508-.763 1.174-.763 1.977 0 .804.253 1.473.757 1.978z" fill="#fff"/><path fill-rule="evenodd" clip-rule="evenodd" d="M81.423 26.064c-2.816 0-5.099 2.142-5.099 5.097 0 2.928 2.298 5.096 5.1 5.096 2.816 0 5.098-2.157 5.098-5.096 0-2.955-2.282-5.097-5.099-5.097zm0 8.174c-1.54 0-2.867-1.279-2.867-3.09 0-1.837 1.33-3.088 2.867-3.088 1.541 0 2.867 1.251 2.867 3.089.003 1.822-1.326 3.089-2.867 3.089zm-11.125-8.174c-2.816 0-5.1 2.142-5.1 5.097 0 2.928 2.299 5.096 5.1 5.096 2.816 0 5.1-2.157 5.1-5.096 0-2.955-2.287-5.097-5.1-5.097zm0 8.174c-1.54 0-2.867-1.279-2.867-3.09 0-1.837 1.33-3.088 2.867-3.088 1.54 0 2.867 1.251 2.867 3.089 0 1.822-1.326 3.089-2.867 3.089zM57.06 27.62v2.157h5.164c-.157 1.21-.557 2.104-1.168 2.716-.757.759-1.925 1.584-3.984 1.584-3.174 0-5.657-2.57-5.657-5.752 0-3.181 2.483-5.75 5.657-5.75 1.713 0 2.962.678 3.889 1.544l1.526-1.53c-1.288-1.237-3.001-2.184-5.403-2.184-4.355 0-8.008 3.555-8.008 7.909 0 4.364 3.65 7.908 8.008 7.908 2.351 0 4.115-.771 5.51-2.223 1.422-1.425 1.872-3.436 1.872-5.058a6.69 6.69 0 00-.12-1.345h-7.29c.004-.003.004.024.004.024zm54.148 1.68c-.426-1.145-1.714-3.248-4.354-3.248-2.617 0-4.793 2.064-4.793 5.097 0 2.862 2.152 5.096 5.046 5.096 2.325 0 3.678-1.425 4.235-2.261l-1.726-1.16c-.572.852-1.368 1.41-2.497 1.41-1.142 0-1.94-.519-2.471-1.544l6.798-2.823c0 .003-.238-.568-.238-.568zm-6.932 1.702c-.054-1.968 1.526-2.97 2.655-2.97.891 0 1.633.44 1.887 1.08l-4.542 1.89zm-5.523 4.939h2.233V20.967h-2.233V35.94zm-3.665-8.745h-.08c-.504-.6-1.461-1.144-2.683-1.144-2.536 0-4.873 2.238-4.873 5.112 0 2.862 2.325 5.073 4.873 5.073 1.207 0 2.178-.547 2.682-1.16h.08v.732c0 1.945-1.037 2.994-2.708 2.994-1.368 0-2.218-.986-2.563-1.81l-1.94.812c.557 1.345 2.044 3.009 4.5 3.009 2.616 0 4.834-1.545 4.834-5.312v-9.145H95.1v.84h-.012zm-2.563 7.042c-1.541 0-2.829-1.29-2.829-3.074 0-1.799 1.288-3.102 2.829-3.102 1.525 0 2.709 1.318 2.709 3.102.015 1.783-1.18 3.074-2.71 3.074zm29.134-13.271h-5.337V35.94h2.232v-5.67h3.108c2.471 0 4.9-1.796 4.9-4.646 0-2.85-2.42-4.658-4.903-4.658zm.066 7.212h-3.174V23.04h3.174c1.672 0 2.617 1.384 2.617 2.57 0 1.174-.957 2.569-2.617 2.569zm13.784-2.142c-1.622 0-3.293.72-3.985 2.288l1.979.825c.426-.825 1.207-1.105 2.032-1.105 1.157 0 2.325.693 2.352 1.93v.158c-.399-.227-1.276-.574-2.325-.574-2.137 0-4.303 1.171-4.303 3.367 0 2.011 1.752 3.302 3.704 3.302 1.499 0 2.325-.679 2.84-1.464h.081v1.159h2.152v-5.736c0-2.671-1.979-4.15-4.527-4.15zm-.28 8.2c-.731 0-1.753-.358-1.753-1.278 0-1.159 1.276-1.598 2.363-1.598.984 0 1.449.212 2.033.505a2.69 2.69 0 01-2.643 2.372zm12.657-7.88l-2.563 6.495h-.081l-2.655-6.495h-2.402l3.984 9.079-2.271 5.046h2.325l6.13-14.125h-2.467zm-20.093 9.584h2.232V20.967h-2.232V35.94z" fill="#fff"/><path fill-rule="evenodd" clip-rule="evenodd" d="M12.47 9.025c-.346.374-.546.945-.546 1.691v26.492c0 .746.2 1.317.557 1.676l.093.08L27.38 24.122v-.332L12.562 8.945l-.092.08z" fill="url(#paint0_linear)"/><path fill-rule="evenodd" clip-rule="evenodd" d="M32.306 29.084l-4.938-4.95v-.347l4.938-4.95.107.066 5.842 3.328c1.671.944 1.671 2.503 0 3.46l-5.842 3.328-.107.065z" fill="url(#paint1_linear)"/><path fill-rule="evenodd" clip-rule="evenodd" d="M32.413 29.018l-5.045-5.058-14.899 14.935c.546.586 1.46.652 2.483.081l17.461-9.957z" fill="url(#paint2_linear)"/><path fill-rule="evenodd" clip-rule="evenodd" d="M32.413 18.903L14.952 8.96c-1.022-.586-1.94-.505-2.483.08l14.899 14.92 5.045-5.057z" fill="url(#paint3_linear)"/><path opacity=".2" fill-rule="evenodd" clip-rule="evenodd" d="M32.306 28.911l-17.342 9.877c-.969.559-1.833.52-2.39.012l-.093.093.093.08c.557.505 1.421.547 2.39-.012l17.461-9.942-.12-.108z" fill="#000"/><path opacity=".12" fill-rule="evenodd" clip-rule="evenodd" d="M38.255 25.517l-5.964 3.394.107.107 5.842-3.328c.837-.478 1.248-1.105 1.248-1.73-.05.574-.477 1.118-1.233 1.557z" fill="#000"/><path opacity=".25" fill-rule="evenodd" clip-rule="evenodd" d="M14.952 9.133l23.303 13.271c.756.427 1.183.986 1.248 1.557 0-.625-.411-1.252-1.248-1.73L14.951 8.96c-1.672-.96-3.028-.158-3.028 1.757v.173c0-1.918 1.356-2.704 3.028-1.757z" fill="#fff"/><defs><linearGradient id="paint0_linear" x1="26.052" y1="10.431" x2="2.327" y2="16.736" gradientUnits="userSpaceOnUse"><stop stop-color="#00A0FF"/><stop offset=".007" stop-color="#00A1FF"/><stop offset=".26" stop-color="#00BEFF"/><stop offset=".512" stop-color="#00D2FF"/><stop offset=".76" stop-color="#00DFFF"/><stop offset="1" stop-color="#00E3FF"/></linearGradient><linearGradient id="paint1_linear" x1="40.435" y1="23.961" x2="11.518" y2="23.961" gradientUnits="userSpaceOnUse"><stop stop-color="#FFE000"/><stop offset=".409" stop-color="#FFBD00"/><stop offset=".775" stop-color="orange"/><stop offset="1" stop-color="#FF9C00"/></linearGradient><linearGradient id="paint2_linear" x1="29.669" y1="26.713" x2="10.56" y2="58.795" gradientUnits="userSpaceOnUse"><stop stop-color="#FF3A44"/><stop offset="1" stop-color="#C31162"/></linearGradient><linearGradient id="paint3_linear" x1="8.718" y1=".214" x2="17.243" y2="14.543" gradientUnits="userSpaceOnUse"><stop stop-color="#32A071"/><stop offset=".069" stop-color="#2DA771"/><stop offset=".476" stop-color="#15CF74"/><stop offset=".801" stop-color="#06E775"/><stop offset="1" stop-color="#00F076"/></linearGradient></defs></svg>