<svg width="2136" height="1172" viewBox="0 0 2136 1172" fill="none" xmlns="http://www.w3.org/2000/svg">
<g opacity="0.6" filter="url(#filter0_f)">
<circle cx="1389.5" cy="302.5" r="130.5" fill="#0073FF" fill-opacity="0.1"/>
</g>
<g opacity="0.3" filter="url(#filter1_f)">
<ellipse cx="1645.5" cy="302.5" rx="184.5" ry="162.5" fill="#003EFF" fill-opacity="0.3"/>
</g>
<g opacity="0.3" filter="url(#filter2_f)">
<ellipse cx="1790.5" cy="519" rx="165.5" ry="233" fill="#D915EA" fill-opacity="0.4"/>
</g>
<g filter="url(#filter3_f)">
<path fill-rule="evenodd" clip-rule="evenodd" d="M145.283 584.02C149.724 602.29 156.732 619.263 165.831 634.648C201.681 695.263 237.571 774.267 249.2 843.723C250.107 849.141 251.217 854.565 252.535 859.988C281.806 980.416 402.607 1054.45 522.351 1025.34C525.311 1024.63 528.242 1023.85 531.144 1023.02C605.431 1001.76 758.904 994.425 833.987 976.176C910.719 957.526 957.804 880.203 939.154 803.471C920.504 726.74 843.181 679.655 766.45 698.305C727.839 707.69 666.326 694.897 641.006 664.274C625.636 645.685 607.449 629.801 587.276 617.133C546.856 591.751 516.516 544.425 505.606 497.96C505.493 497.481 505.379 497.003 505.263 496.525C481.102 397.119 380.931 336.122 281.526 360.283C182.12 384.444 121.122 484.614 145.283 584.02Z" fill="url(#paint0_linear)" fill-opacity="0.1"/>
</g>
<defs>
<filter id="filter0_f" x="1119" y="32" width="541" height="541" filterUnits="userSpaceOnUse" color-interpolation-filters="sRGB">
<feFlood flood-opacity="0" result="BackgroundImageFix"/>
<feBlend mode="normal" in="SourceGraphic" in2="BackgroundImageFix" result="shape"/>
<feGaussianBlur stdDeviation="70" result="effect1_foregroundBlur"/>
</filter>
<filter id="filter1_f" x="1321" y="0" width="649" height="605" filterUnits="userSpaceOnUse" color-interpolation-filters="sRGB">
<feFlood flood-opacity="0" result="BackgroundImageFix"/>
<feBlend mode="normal" in="SourceGraphic" in2="BackgroundImageFix" result="shape"/>
<feGaussianBlur stdDeviation="70" result="effect1_foregroundBlur"/>
</filter>
<filter id="filter2_f" x="1445" y="106" width="691" height="826" filterUnits="userSpaceOnUse" color-interpolation-filters="sRGB">
<feFlood flood-opacity="0" result="BackgroundImageFix"/>
<feBlend mode="normal" in="SourceGraphic" in2="BackgroundImageFix" result="shape"/>
<feGaussianBlur stdDeviation="90" result="effect1_foregroundBlur"/>
</filter>
<filter id="filter3_f" x="0" y="215" width="1083.23" height="956.675" filterUnits="userSpaceOnUse" color-interpolation-filters="sRGB">
<feFlood flood-opacity="0" result="BackgroundImageFix"/>
<feBlend mode="normal" in="SourceGraphic" in2="BackgroundImageFix" result="shape"/>
<feGaussianBlur stdDeviation="70" result="effect1_foregroundBlur"/>
</filter>
<linearGradient id="paint0_linear" x1="372.036" y1="408.035" x2="956.536" y2="851.035" gradientUnits="userSpaceOnUse">
<stop stop-color="#FF00B5"/>
<stop offset="0.412668" stop-color="#2C15EA" stop-opacity="0.65"/>
<stop offset="1" stop-color="#FF00E4" stop-opacity="0.71"/>
</linearGradient>
</defs>
</svg>
