<svg width="320" height="660" viewBox="0 0 320 660" fill="none" xmlns="http://www.w3.org/2000/svg"><mask id="mask0" maskUnits="userSpaceOnUse" x="0" y="0" width="320" height="664"><path fill="#F5F2EE" d="M0 0h320v664H0z"/></mask><g mask="url(#mask0)"><g filter="url(#filter0_f)"><ellipse cx="257.667" cy="83.303" rx="29" ry="105.035" fill="#0073FF" fill-opacity=".4"/></g><g filter="url(#filter1_f)"><ellipse cx="303.444" cy="321.543" rx="36.778" ry="133.205" fill="#FD9270"/></g><g filter="url(#filter2_f)"><ellipse cx="303.444" cy="482.515" rx="36.778" ry="133.205" fill="#FD9270"/></g><g filter="url(#filter3_f)"><ellipse cx="303.444" cy="83.303" rx="36.778" ry="133.205" fill="#D915EA" fill-opacity=".4"/></g><g filter="url(#filter4_f)"><path fill-rule="evenodd" clip-rule="evenodd" d="M-48.722 488.942c1.502 22.382 4.325 42.345 8.098 59.065 7.14 31.652 15.832 64.99 14.699 97.418a648.018 648.018 0 001.037 65.633c6.504 96.928 33.349 156.515 59.959 133.089 5.068-4.461 9.761-11.611 13.995-20.934 5.202-11.456 45.813-10.326 55.257-18.64 17.051-15.01 27.515-77.244 23.37-139.003-4.144-61.758-21.327-99.655-38.378-84.644-5.677 4.997-22.126 3.528-23.338-3.937-6.075-37.414-15.624-65.245-26.673-79.108-4.246-5.328-7.795-11.752-7.467-18.557a532.105 532.105 0 00-.564-60.803c-5.37-80.008-27.63-129.103-49.72-109.657-22.09 19.446-35.645 100.07-30.275 180.078z" fill="url(#paint0_linear)" fill-opacity=".2"/></g></g><defs><filter id="filter0_f" x="88.666" y="-161.731" width="338" height="490.069" filterUnits="userSpaceOnUse" color-interpolation-filters="sRGB"><feFlood flood-opacity="0" result="BackgroundImageFix"/><feBlend in="SourceGraphic" in2="BackgroundImageFix" result="shape"/><feGaussianBlur stdDeviation="70" result="effect1_foregroundBlur"/></filter><filter id="filter1_f" x="126.667" y="48.338" width="353.556" height="546.41" filterUnits="userSpaceOnUse" color-interpolation-filters="sRGB"><feFlood flood-opacity="0" result="BackgroundImageFix"/><feBlend in="SourceGraphic" in2="BackgroundImageFix" result="shape"/><feGaussianBlur stdDeviation="70" result="effect1_foregroundBlur"/></filter><filter id="filter2_f" x="126.667" y="209.311" width="353.556" height="546.41" filterUnits="userSpaceOnUse" color-interpolation-filters="sRGB"><feFlood flood-opacity="0" result="BackgroundImageFix"/><feBlend in="SourceGraphic" in2="BackgroundImageFix" result="shape"/><feGaussianBlur stdDeviation="70" result="effect1_foregroundBlur"/></filter><filter id="filter3_f" x="126.667" y="-189.902" width="353.556" height="546.41" filterUnits="userSpaceOnUse" color-interpolation-filters="sRGB"><feFlood flood-opacity="0" result="BackgroundImageFix"/><feBlend in="SourceGraphic" in2="BackgroundImageFix" result="shape"/><feGaussianBlur stdDeviation="70" result="effect1_foregroundBlur"/></filter><filter id="filter4_f" x="-189.896" y="164.612" width="458.496" height="824.63" filterUnits="userSpaceOnUse" color-interpolation-filters="sRGB"><feFlood flood-opacity="0" result="BackgroundImageFix"/><feBlend in="SourceGraphic" in2="BackgroundImageFix" result="shape"/><feGaussianBlur stdDeviation="70" result="effect1_foregroundBlur"/></filter><linearGradient id="paint0_linear" x1="1.667" y1="347.298" x2="197.589" y2="388.297" gradientUnits="userSpaceOnUse"><stop stop-color="#FF00B5"/><stop offset=".413" stop-color="#2C15EA" stop-opacity=".65"/><stop offset="1" stop-color="#FF00E4" stop-opacity=".71"/></linearGradient></defs></svg>