<svg width="1440" height="824" viewBox="0 0 1440 824" fill="none" xmlns="http://www.w3.org/2000/svg"><mask id="mask0" maskUnits="userSpaceOnUse" x="0" y="0" width="1440" height="824"><path fill="#F5F2EE" d="M0 0h1440v824H0z"/></mask><g mask="url(#mask0)"><g filter="url(#filter0_f)"><ellipse cx="1159.5" cy="97.691" rx="130.5" ry="123.175" fill="#0073FF" fill-opacity=".4"/></g><g filter="url(#filter1_f)"><ellipse cx="1365.5" cy="377.077" rx="165.5" ry="156.211" fill="#FD9270"/></g><g filter="url(#filter2_f)"><ellipse cx="1365.5" cy="565.851" rx="165.5" ry="156.211" fill="#FD9270"/></g><g filter="url(#filter3_f)"><ellipse cx="1365.5" cy="97.691" rx="165.5" ry="156.211" fill="#D915EA" fill-opacity=".4"/></g><g filter="url(#filter4_f)"><path fill-rule="evenodd" clip-rule="evenodd" d="M-219.253 573.388a169.237 169.237 0 0016.361 40.732c35.407 63.037 73.195 146.12 90.066 216.425.265 1.107.541 2.213.826 3.32 29.27 113.669 150.071 183.545 269.815 156.076a237.005 237.005 0 007.039-1.728c76.063-19.918 227.961-27.1 304.598-44.682 76.731-17.603 123.816-90.585 105.166-163.01-18.65-72.425-95.972-116.867-172.704-99.264-39.198 8.993-100.301-4.131-127.163-34.061-15.627-17.41-34.057-32.232-54.452-43.981-39.429-22.714-68.224-68.345-79.572-112.411C116.566 396.977 16.396 339.403-83.01 362.208c-99.406 22.805-160.404 117.353-136.243 211.18z" fill="url(#paint0_linear)" fill-opacity=".2"/></g></g><defs><filter id="filter0_f" x="889" y="-165.484" width="541" height="526.351" filterUnits="userSpaceOnUse" color-interpolation-filters="sRGB"><feFlood flood-opacity="0" result="BackgroundImageFix"/><feBlend in="SourceGraphic" in2="BackgroundImageFix" result="shape"/><feGaussianBlur stdDeviation="70" result="effect1_foregroundBlur"/></filter><filter id="filter1_f" x="1060" y="80.866" width="611" height="592.422" filterUnits="userSpaceOnUse" color-interpolation-filters="sRGB"><feFlood flood-opacity="0" result="BackgroundImageFix"/><feBlend in="SourceGraphic" in2="BackgroundImageFix" result="shape"/><feGaussianBlur stdDeviation="70" result="effect1_foregroundBlur"/></filter><filter id="filter2_f" x="1060" y="269.64" width="611" height="592.422" filterUnits="userSpaceOnUse" color-interpolation-filters="sRGB"><feFlood flood-opacity="0" result="BackgroundImageFix"/><feBlend in="SourceGraphic" in2="BackgroundImageFix" result="shape"/><feGaussianBlur stdDeviation="70" result="effect1_foregroundBlur"/></filter><filter id="filter3_f" x="1060" y="-198.52" width="611" height="592.422" filterUnits="userSpaceOnUse" color-interpolation-filters="sRGB"><feFlood flood-opacity="0" result="BackgroundImageFix"/><feBlend in="SourceGraphic" in2="BackgroundImageFix" result="shape"/><feGaussianBlur stdDeviation="70" result="effect1_foregroundBlur"/></filter><filter id="filter4_f" x="-364.536" y="217.222" width="1083.23" height="918.693" filterUnits="userSpaceOnUse" color-interpolation-filters="sRGB"><feFlood flood-opacity="0" result="BackgroundImageFix"/><feBlend in="SourceGraphic" in2="BackgroundImageFix" result="shape"/><feGaussianBlur stdDeviation="70" result="effect1_foregroundBlur"/></filter><linearGradient id="paint0_linear" x1="7.5" y1="407.281" x2="567" y2="856.55" gradientUnits="userSpaceOnUse"><stop stop-color="#FF00B5"/><stop offset=".413" stop-color="#2C15EA" stop-opacity=".65"/><stop offset="1" stop-color="#FF00E4" stop-opacity=".71"/></linearGradient></defs></svg>