<svg width="138" height="17" viewBox="0 0 138 17" fill="none" xmlns="http://www.w3.org/2000/svg">
<mask id="mask0" mask-type="alpha" maskUnits="userSpaceOnUse" x="0" y="0" width="138" height="17">
<path d="M137.861 0.15332H0.116943V16.7644H137.861V0.15332Z" fill="white"/>
<path d="M0.372314 16.2492H2.3029L4.30084 11.4792H11.462L13.4824 16.2492H15.5252L8.76813 0.40918H7.12938L0.372314 16.2492ZM7.89262 2.95169L10.7212 9.67922H5.06409L7.89262 2.95169Z" fill="black"/>
<path d="M24.6992 13.4815C24.0258 14.2465 23.0156 14.7865 21.8034 14.7865C19.8054 14.7865 18.1667 13.414 18.1667 11.1864C18.1667 9.04895 19.8054 7.58644 21.6238 7.58644C22.6789 7.58644 23.6666 7.85646 24.5197 8.64395L25.3503 7.22643C24.4074 6.28144 22.9931 5.89893 21.3768 5.89893C18.4136 5.89893 16.2585 8.23895 16.2585 11.1864C16.2585 14.3815 18.4585 16.474 21.6687 16.474C23.2176 16.474 24.6992 15.889 25.5523 14.7865L24.6992 13.4815Z" fill="black"/>
<path d="M27.6687 12.4016C27.6687 14.9891 28.5667 16.4291 30.834 16.4291C31.9564 16.4291 32.8769 16.0241 33.4156 15.5741L32.8544 14.1791C32.4951 14.4491 31.9564 14.7416 31.2605 14.7416C29.981 14.7416 29.4647 13.8191 29.4647 12.2216V7.81155H33.1688V6.12404H29.4647V3.31152H27.6687V12.4016Z" fill="black"/>
<path d="M36.3013 16.2493H38.0973V6.12423H36.3013V16.2493ZM36.0769 2.3217C36.0769 3.0642 36.6156 3.4917 37.2443 3.4917C37.8055 3.4917 38.3442 3.0642 38.3442 2.3217C38.3442 1.6692 37.8055 1.2417 37.2443 1.2417C36.6156 1.2417 36.0769 1.6692 36.0769 2.3217Z" fill="black"/>
<path d="M50.7712 6.12402H48.863L46.5507 11.5465C46.2589 12.2216 45.9445 13.0991 45.7202 13.8415C45.4733 13.0991 45.159 12.244 44.8671 11.5915L42.4202 6.12402H40.3101L45.0018 16.3391H46.3039L50.7712 6.12402Z" fill="black"/>
<path d="M60.065 13.729C59.4141 14.3365 58.2692 14.7865 56.9671 14.7865C54.9917 14.7865 53.5999 13.6615 53.4428 11.7489H61.2099C61.2774 11.434 61.3221 11.0289 61.3221 10.534C61.3221 7.74393 59.2344 5.89893 56.6303 5.89893C53.3081 5.89893 51.4224 8.23895 51.4224 11.1864C51.4224 14.3815 53.555 16.474 56.8325 16.474C58.1793 16.474 59.6385 16.0465 60.6262 15.1465L60.065 13.729ZM56.5406 7.58644C58.2917 7.58644 59.3691 8.62144 59.4591 10.2865H53.3303C53.5325 8.73396 54.6999 7.58644 56.5406 7.58644Z" fill="black"/>
<path d="M69.5415 16.2491H71.4497V9.67906H77.7354V7.87906H71.4497V2.29903H78.4088V0.499023H69.5415V16.2491Z" fill="black"/>
<path d="M80.595 16.2489H82.391V9.07136C82.7726 8.32887 83.3338 7.63136 84.5011 7.63136C85.1073 7.63136 85.3767 7.72136 85.8704 8.01387L86.4991 6.32636C86.1622 6.07886 85.7582 5.94385 84.9277 5.94385C83.6481 5.94385 82.9072 6.55135 82.391 7.31636V6.12386H80.595V16.2489Z" fill="black"/>
<path d="M88.7183 16.2493H90.5141V6.12423H88.7183V16.2493ZM88.4937 2.3217C88.4937 3.0642 89.0324 3.4917 89.661 3.4917C90.2222 3.4917 90.7609 3.0642 90.7609 2.3217C90.7609 1.6692 90.2222 1.2417 89.661 1.2417C89.0324 1.2417 88.4937 1.6692 88.4937 2.3217Z" fill="black"/>
<path d="M102.2 13.729C101.549 14.3365 100.404 14.7865 99.1024 14.7865C97.127 14.7865 95.735 13.6615 95.5778 11.7489H103.345C103.413 11.434 103.457 11.0289 103.457 10.534C103.457 7.74393 101.37 5.89893 98.7656 5.89893C95.4431 5.89893 93.5576 8.23895 93.5576 11.1864C93.5576 14.3815 95.6902 16.474 98.9677 16.474C100.315 16.474 101.774 16.0465 102.761 15.1465L102.2 13.729ZM98.6759 7.58644C100.427 7.58644 101.504 8.62144 101.594 10.2865H95.4656C95.6677 8.73396 96.8351 7.58644 98.6759 7.58644Z" fill="black"/>
<path d="M105.894 16.2489H107.69V8.93638C108.341 8.19386 109.396 7.63136 110.541 7.63136C112.426 7.63136 113.392 8.62138 113.392 10.7364V16.2489H115.188V10.3989C115.188 7.22635 113.616 5.94385 110.99 5.94385C109.665 5.94385 108.385 6.59636 107.69 7.36136V6.12386H105.894V16.2489Z" fill="black"/>
<path d="M125.622 16.2491H127.418V0.499023H125.622V6.61904C124.926 6.12405 124.141 5.89904 123.063 5.89904C119.876 5.89904 117.541 8.10405 117.541 11.2541C117.541 14.3816 119.449 16.4291 122.412 16.4291C123.781 16.4291 124.882 15.7766 125.622 14.9666V16.2491ZM122.749 14.7416C120.863 14.7416 119.449 13.4366 119.449 11.2091C119.449 8.98157 121.133 7.58655 123.131 7.58655C123.961 7.58655 124.769 7.83405 125.622 8.37407V13.3916C124.994 14.0891 123.916 14.7416 122.749 14.7416Z" fill="black"/>
<path d="M135.763 13.504C135.763 14.4265 134.91 14.899 133.967 14.899C132.957 14.899 131.632 14.2915 131.049 13.6165L130.038 14.899C130.51 15.619 132.126 16.474 133.765 16.474C135.785 16.474 137.671 15.5515 137.671 13.414C137.671 9.85896 132.216 10.8714 132.216 8.73396C132.216 8.05896 132.822 7.47394 133.832 7.47394C134.887 7.47394 135.763 7.92395 136.369 8.46394L137.222 7.09145C136.616 6.50643 135.404 5.89893 133.742 5.89893C131.744 5.89893 130.308 6.97893 130.308 8.75645C130.308 12.469 135.763 11.4565 135.763 13.504Z" fill="black"/>
</mask>
<g mask="url(#mask0)">
<path d="M0.372314 16.2492H2.3029L4.30084 11.4792H11.462L13.4824 16.2492H15.5252L8.76813 0.40918H7.12938L0.372314 16.2492ZM7.89262 2.95169L10.7212 9.67922H5.06409L7.89262 2.95169Z" fill="black"/>
<path d="M24.6992 13.4815C24.0258 14.2465 23.0156 14.7865 21.8034 14.7865C19.8054 14.7865 18.1667 13.414 18.1667 11.1864C18.1667 9.04895 19.8054 7.58644 21.6238 7.58644C22.6789 7.58644 23.6666 7.85646 24.5197 8.64395L25.3503 7.22643C24.4074 6.28144 22.9931 5.89893 21.3768 5.89893C18.4136 5.89893 16.2585 8.23895 16.2585 11.1864C16.2585 14.3815 18.4585 16.474 21.6687 16.474C23.2176 16.474 24.6992 15.889 25.5523 14.7865L24.6992 13.4815Z" fill="black"/>
<path d="M27.6687 12.4016C27.6687 14.9891 28.5667 16.4291 30.834 16.4291C31.9564 16.4291 32.8769 16.0241 33.4156 15.5741L32.8544 14.1791C32.4951 14.4491 31.9564 14.7416 31.2605 14.7416C29.981 14.7416 29.4647 13.8191 29.4647 12.2216V7.81155H33.1688V6.12404H29.4647V3.31152H27.6687V12.4016Z" fill="black"/>
<path d="M36.301 16.2493H38.0971V6.12423H36.301V16.2493ZM36.0767 2.3217C36.0767 3.0642 36.6154 3.4917 37.244 3.4917C37.8052 3.4917 38.344 3.0642 38.344 2.3217C38.344 1.6692 37.8052 1.2417 37.244 1.2417C36.6154 1.2417 36.0767 1.6692 36.0767 2.3217Z" fill="black"/>
<path d="M50.7712 6.12402H48.863L46.5507 11.5465C46.2589 12.2216 45.9445 13.0991 45.7202 13.8415C45.4733 13.0991 45.159 12.244 44.8671 11.5915L42.4202 6.12402H40.3101L45.0018 16.3391H46.3039L50.7712 6.12402Z" fill="black"/>
<path d="M60.065 13.729C59.4141 14.3365 58.2692 14.7865 56.9671 14.7865C54.9917 14.7865 53.5999 13.6615 53.4428 11.7489H61.2099C61.2774 11.434 61.3221 11.0289 61.3221 10.534C61.3221 7.74393 59.2344 5.89893 56.6303 5.89893C53.3081 5.89893 51.4224 8.23895 51.4224 11.1864C51.4224 14.3815 53.555 16.474 56.8325 16.474C58.1793 16.474 59.6385 16.0465 60.6262 15.1465L60.065 13.729ZM56.5406 7.58644C58.2917 7.58644 59.3691 8.62144 59.4591 10.2865H53.3303C53.5325 8.73396 54.6999 7.58644 56.5406 7.58644Z" fill="black"/>
<path d="M69.5415 16.2491H71.4497V9.67906H77.7354V7.87906H71.4497V2.29903H78.4088V0.499023H69.5415V16.2491Z" fill="black"/>
<path d="M80.595 16.2494H82.391V9.07185C82.7726 8.32936 83.3338 7.63185 84.5011 7.63185C85.1073 7.63185 85.3767 7.72185 85.8704 8.01436L86.4991 6.32685C86.1622 6.07935 85.7582 5.94434 84.9277 5.94434C83.6481 5.94434 82.9072 6.55184 82.391 7.31685V6.12435H80.595V16.2494Z" fill="black"/>
<path d="M88.7183 16.2493H90.5141V6.12423H88.7183V16.2493ZM88.4937 2.3217C88.4937 3.0642 89.0324 3.4917 89.661 3.4917C90.2222 3.4917 90.7609 3.0642 90.7609 2.3217C90.7609 1.6692 90.2222 1.2417 89.661 1.2417C89.0324 1.2417 88.4937 1.6692 88.4937 2.3217Z" fill="black"/>
<path d="M102.2 13.729C101.549 14.3365 100.404 14.7865 99.1024 14.7865C97.127 14.7865 95.735 13.6615 95.5778 11.7489H103.345C103.413 11.434 103.457 11.0289 103.457 10.534C103.457 7.74393 101.37 5.89893 98.7656 5.89893C95.4431 5.89893 93.5576 8.23895 93.5576 11.1864C93.5576 14.3815 95.6902 16.474 98.9677 16.474C100.315 16.474 101.774 16.0465 102.761 15.1465L102.2 13.729ZM98.6759 7.58644C100.427 7.58644 101.504 8.62144 101.594 10.2865H95.4656C95.6677 8.73396 96.8351 7.58644 98.6759 7.58644Z" fill="black"/>
<path d="M105.894 16.2494H107.69V8.93687C108.341 8.19435 109.396 7.63185 110.541 7.63185C112.426 7.63185 113.392 8.62187 113.392 10.7369V16.2494H115.188V10.3994C115.188 7.22684 113.616 5.94434 110.99 5.94434C109.665 5.94434 108.385 6.59685 107.69 7.36185V6.12435H105.894V16.2494Z" fill="black"/>
<path d="M125.622 16.2491H127.418V0.499023H125.622V6.61904C124.926 6.12405 124.141 5.89904 123.063 5.89904C119.876 5.89904 117.541 8.10405 117.541 11.2541C117.541 14.3816 119.449 16.4291 122.412 16.4291C123.781 16.4291 124.882 15.7766 125.622 14.9666V16.2491ZM122.749 14.7416C120.863 14.7416 119.449 13.4366 119.449 11.2091C119.449 8.98157 121.133 7.58655 123.131 7.58655C123.961 7.58655 124.769 7.83405 125.622 8.37407V13.3916C124.994 14.0891 123.916 14.7416 122.749 14.7416Z" fill="black"/>
<path d="M135.763 13.504C135.763 14.4265 134.909 14.899 133.967 14.899C132.957 14.899 131.632 14.2915 131.048 13.6165L130.038 14.899C130.51 15.619 132.126 16.474 133.765 16.474C135.785 16.474 137.671 15.5515 137.671 13.414C137.671 9.85896 132.216 10.8714 132.216 8.73396C132.216 8.05896 132.822 7.47394 133.832 7.47394C134.887 7.47394 135.763 7.92395 136.369 8.46394L137.222 7.09145C136.616 6.50643 135.403 5.89893 133.742 5.89893C131.744 5.89893 130.307 6.97893 130.307 8.75645C130.307 12.469 135.763 11.4565 135.763 13.504Z" fill="black"/>
<path d="M0.372314 16.2492H2.3029L4.30084 11.4792H11.462L13.4824 16.2492H15.5252L8.76813 0.40918H7.12938L0.372314 16.2492ZM7.89262 2.95169L10.7212 9.67922H5.06408L7.89262 2.95169Z" stroke="black" stroke-width="0.331238"/>
<path d="M24.6992 13.4815C24.0258 14.2465 23.0156 14.7865 21.8034 14.7865C19.8054 14.7865 18.1667 13.414 18.1667 11.1864C18.1667 9.04895 19.8054 7.58644 21.6238 7.58644C22.6789 7.58644 23.6666 7.85646 24.5197 8.64395L25.3503 7.22643C24.4074 6.28144 22.9931 5.89893 21.3768 5.89893C18.4136 5.89893 16.2585 8.23895 16.2585 11.1864C16.2585 14.3815 18.4585 16.474 21.6687 16.474C23.2176 16.474 24.6992 15.889 25.5523 14.7865L24.6992 13.4815Z" stroke="black" stroke-width="0.331238"/>
<path d="M27.6687 12.4016C27.6687 14.9891 28.5667 16.4291 30.834 16.4291C31.9564 16.4291 32.8769 16.0241 33.4156 15.5741L32.8544 14.1791C32.4951 14.4491 31.9564 14.7416 31.2605 14.7416C29.981 14.7416 29.4647 13.8191 29.4647 12.2216V7.81155H33.1688V6.12404H29.4647V3.31152H27.6687V12.4016Z" stroke="black" stroke-width="0.331238"/>
<path d="M36.301 16.2493H38.0971V6.12423H36.301V16.2493ZM36.0767 2.32171C36.0767 3.0642 36.6154 3.4917 37.244 3.4917C37.8052 3.4917 38.344 3.0642 38.344 2.32171C38.344 1.6692 37.8052 1.2417 37.244 1.2417C36.6154 1.2417 36.0767 1.6692 36.0767 2.32171Z" stroke="black" stroke-width="0.331238"/>
<path d="M50.7712 6.12402H48.863L46.5507 11.5465C46.2589 12.2216 45.9445 13.0991 45.7202 13.8415C45.4733 13.0991 45.159 12.244 44.8671 11.5915L42.4202 6.12402H40.3101L45.0018 16.3391H46.3039L50.7712 6.12402Z" stroke="black" stroke-width="0.331238"/>
<path d="M60.065 13.729C59.4141 14.3365 58.2692 14.7865 56.9671 14.7865C54.9917 14.7865 53.5999 13.6615 53.4428 11.7489H61.2099C61.2774 11.434 61.3221 11.0289 61.3221 10.534C61.3221 7.74393 59.2344 5.89893 56.6303 5.89893C53.3081 5.89893 51.4224 8.23895 51.4224 11.1864C51.4224 14.3815 53.555 16.474 56.8325 16.474C58.1793 16.474 59.6385 16.0465 60.6262 15.1465L60.065 13.729ZM56.5406 7.58644C58.2917 7.58644 59.3691 8.62144 59.4591 10.2865H53.3303C53.5325 8.73396 54.6999 7.58644 56.5406 7.58644Z" stroke="black" stroke-width="0.331238"/>
<path d="M69.5415 16.2491H71.4497V9.67906H77.7354V7.87906H71.4497V2.29903H78.4088V0.499023H69.5415V16.2491Z" stroke="black" stroke-width="0.331238"/>
<path d="M80.595 16.2494H82.391V9.07185C82.7726 8.32936 83.3338 7.63185 84.5011 7.63185C85.1073 7.63185 85.3767 7.72185 85.8704 8.01436L86.4991 6.32685C86.1622 6.07935 85.7582 5.94434 84.9277 5.94434C83.6481 5.94434 82.9072 6.55184 82.391 7.31685V6.12435H80.595V16.2494Z" stroke="black" stroke-width="0.331238"/>
<path d="M88.7183 16.2493H90.5141V6.12423H88.7183V16.2493ZM88.4937 2.32171C88.4937 3.0642 89.0324 3.4917 89.661 3.4917C90.2222 3.4917 90.7609 3.0642 90.7609 2.32171C90.7609 1.6692 90.2222 1.2417 89.661 1.2417C89.0324 1.2417 88.4937 1.6692 88.4937 2.32171Z" stroke="black" stroke-width="0.331238"/>
<path d="M102.2 13.729C101.549 14.3365 100.404 14.7865 99.1024 14.7865C97.127 14.7865 95.735 13.6615 95.5778 11.7489H103.345C103.413 11.434 103.457 11.0289 103.457 10.534C103.457 7.74393 101.37 5.89893 98.7656 5.89893C95.4431 5.89893 93.5576 8.23895 93.5576 11.1864C93.5576 14.3815 95.6902 16.474 98.9677 16.474C100.315 16.474 101.774 16.0465 102.761 15.1465L102.2 13.729ZM98.6759 7.58644C100.427 7.58644 101.504 8.62144 101.594 10.2865H95.4656C95.6677 8.73396 96.8351 7.58644 98.6759 7.58644Z" stroke="black" stroke-width="0.331238"/>
<path d="M105.894 16.2494H107.69V8.93687C108.341 8.19435 109.396 7.63185 110.541 7.63185C112.426 7.63185 113.392 8.62187 113.392 10.7369V16.2494H115.188V10.3994C115.188 7.22684 113.616 5.94434 110.99 5.94434C109.665 5.94434 108.385 6.59685 107.69 7.36185V6.12435H105.894V16.2494Z" stroke="black" stroke-width="0.331238"/>
<path d="M125.622 16.2491H127.418V0.499023H125.622V6.61904C124.926 6.12405 124.141 5.89904 123.063 5.89904C119.876 5.89904 117.541 8.10405 117.541 11.2541C117.541 14.3816 119.449 16.4291 122.412 16.4291C123.781 16.4291 124.882 15.7766 125.622 14.9666V16.2491ZM122.749 14.7416C120.863 14.7416 119.449 13.4366 119.449 11.2091C119.449 8.98157 121.133 7.58655 123.131 7.58655C123.961 7.58655 124.769 7.83405 125.622 8.37407V13.3916C124.994 14.0891 123.916 14.7416 122.749 14.7416Z" stroke="black" stroke-width="0.331238"/>
<path d="M135.763 13.504C135.763 14.4265 134.909 14.899 133.967 14.899C132.957 14.899 131.632 14.2915 131.048 13.6165L130.038 14.899C130.51 15.619 132.126 16.474 133.765 16.474C135.785 16.474 137.671 15.5515 137.671 13.414C137.671 9.85896 132.216 10.8714 132.216 8.73396C132.216 8.05896 132.822 7.47394 133.832 7.47394C134.887 7.47394 135.763 7.92395 136.369 8.46394L137.222 7.09145C136.616 6.50643 135.403 5.89893 133.742 5.89893C131.744 5.89893 130.307 6.97893 130.307 8.75645C130.307 12.469 135.763 11.4565 135.763 13.504Z" stroke="black" stroke-width="0.331238"/>
</g>
</svg>
