<svg width="32" height="34" viewBox="0 0 32 34" fill="none" xmlns="http://www.w3.org/2000/svg">
<path fill-rule="evenodd" clip-rule="evenodd" d="M17.3317 3.61681C16.8317 2.55027 15.3167 2.55028 14.8167 3.61677L3.21475 28.3648C2.78234 29.2871 3.45459 30.3466 4.47226 30.3466H4.5463C4.90242 30.3466 5.24492 30.2097 5.5031 29.9641L14.0573 21.8275L13.136 20.9511C11.8069 19.687 11.459 17.7016 12.2788 16.0599L12.3467 15.9239C13.8826 12.8485 18.2659 12.8485 19.8017 15.9239L19.8696 16.0599C20.6894 17.7016 20.3416 19.687 19.0125 20.9511L18.0912 21.8275L26.6454 29.9641C26.9035 30.2097 27.246 30.3466 27.6022 30.3466H27.6762C28.6939 30.3466 29.3661 29.2871 28.9337 28.3648L17.3317 3.61681ZM16.0742 23.746L24.7318 31.9809C25.5063 32.7176 26.5338 33.1284 27.6022 33.1284H27.6762C30.7292 33.1284 32.746 29.9499 31.4487 27.1828L19.8468 2.43481C18.3468 -0.764721 13.8017 -0.764731 12.3017 2.4348L0.699732 27.1828C-0.597517 29.9499 1.41924 33.1284 4.47226 33.1284H4.5463C5.61463 33.1284 6.64213 32.7176 7.41663 31.9809L16.0742 23.746ZM16.0742 19.9091L17.0989 18.9344C17.5419 18.513 17.6579 17.8512 17.3846 17.304L17.3167 17.168C16.8048 16.1428 15.3437 16.1428 14.8317 17.168L14.7638 17.304C14.4905 17.8512 14.6065 18.513 15.0496 18.9344L16.0742 19.9091Z" fill="black"/>
</svg>
