<svg width="985" height="760" viewBox="0 0 985 760" fill="none" xmlns="http://www.w3.org/2000/svg">
<g filter="url(#filter0_f)">
<path fill-rule="evenodd" clip-rule="evenodd" d="M386.308 174.124C456.407 180.868 542.007 166.649 609.836 147.709C627.052 142.902 645.26 140.525 664.057 140.965C766.329 143.355 847.299 228.2 844.908 330.472C842.518 432.744 757.673 513.714 655.401 511.324V511.324C606.893 510.19 552.368 527.546 516.593 560.325C475.33 598.132 419.84 620.687 359.307 619.272C235.406 616.376 137.299 514.157 140.178 390.96C143.057 267.763 245.833 170.24 369.734 173.136C375.313 173.266 380.84 173.598 386.308 174.124Z" fill="url(#paint0_linear)" fill-opacity="0.1"/>
</g>
<defs>
<filter id="filter0_f" x="0.116226" y="0.913086" width="984.844" height="758.422" filterUnits="userSpaceOnUse" color-interpolation-filters="sRGB">
<feFlood flood-opacity="0" result="BackgroundImageFix"/>
<feBlend mode="normal" in="SourceGraphic" in2="BackgroundImageFix" result="shape"/>
<feGaussianBlur stdDeviation="70" result="effect1_foregroundBlur"/>
</filter>
<linearGradient id="paint0_linear" x1="794.096" y1="335.605" x2="414.554" y2="749.242" gradientUnits="userSpaceOnUse">
<stop stop-color="#FF00B5"/>
<stop offset="0.412668" stop-color="#2C15EA" stop-opacity="0.65"/>
<stop offset="1" stop-color="#FF00E4" stop-opacity="0.71"/>
</linearGradient>
</defs>
</svg>
