<svg width="985" height="760" viewBox="0 0 985 760" fill="none" xmlns="http://www.w3.org/2000/svg"><g filter="url(#filter0_f)"><path fill-rule="evenodd" clip-rule="evenodd" d="M386.308 174.124c70.099 6.744 155.699-7.475 223.528-26.415 17.216-4.807 35.424-7.184 54.221-6.744 102.272 2.39 183.242 87.235 180.851 189.507-2.39 102.272-87.235 183.242-189.507 180.852-48.508-1.134-103.033 16.222-138.808 49.001-41.263 37.807-96.753 60.362-157.286 58.947-123.901-2.896-222.008-105.115-219.129-228.312 2.879-123.197 105.655-220.72 229.556-217.824 5.579.13 11.106.462 16.574.988z" fill="url(#paint0_linear)" fill-opacity=".1"/></g><defs><linearGradient id="paint0_linear" x1="794.096" y1="335.605" x2="414.554" y2="749.242" gradientUnits="userSpaceOnUse"><stop stop-color="#FF00B5"/><stop offset=".413" stop-color="#2C15EA" stop-opacity=".65"/><stop offset="1" stop-color="#FF00E4" stop-opacity=".71"/></linearGradient><filter id="filter0_f" x=".116" y=".913" width="984.844" height="758.422" filterUnits="userSpaceOnUse" color-interpolation-filters="sRGB"><feFlood flood-opacity="0" result="BackgroundImageFix"/><feBlend in="SourceGraphic" in2="BackgroundImageFix" result="shape"/><feGaussianBlur stdDeviation="70" result="effect1_foregroundBlur"/></filter></defs></svg>