<svg width="24" height="24" viewBox="0 0 24 24" fill="none" xmlns="http://www.w3.org/2000/svg"><path d="M24 20.667A3.333 3.333 0 0120.667 24H3.333A3.333 3.333 0 010 20.667V3.333A3.333 3.333 0 013.333 0h17.334A3.333 3.333 0 0124 3.333v17.334z" fill="#1976D2"/><path d="M19.958 8.194c.03-.1.045-.194.041-.277-.01-.242-.176-.417-.566-.417h-1.746c-.44 0-.644.267-.763.534 0 0-1.088 2.24-2.341 3.716-.407.427-.614.417-.834.417-.118 0-.416-.143-.416-.534V8.176c0-.463-.115-.676-.488-.676h-3.1c-.27 0-.412.213-.412.427 0 .445.599.552.667 1.798v2.415c0 .587-.102.693-.322.693-.593 0-1.761-2-2.543-4.621-.17-.516-.339-.712-.78-.712H4.593c-.508 0-.593.25-.593.516 0 .48.4 3.08 2.583 6.067C8.167 16.25 10.253 17.5 12.1 17.5c1.119 0 1.233-.285 1.233-.73v-1.98c.001-.535.123-.623.48-.623.253 0 .771.166 1.771 1.333 1.153 1.345 1.363 2 2.024 2h1.745c.406 0 .639-.17.648-.5a1.03 1.03 0 00-.038-.283c-.129-.384-.722-1.322-1.462-2.217-.41-.495-.815-.986-1-1.253-.125-.174-.173-.296-.167-.414.006-.123.07-.24.166-.404-.017 0 2.239-3.168 2.459-4.235z" fill="#fff"/></svg>